HIERARCHY
ROOT Hips
{
	OFFSET 0.00000 0.00000 0.00000
	CHANNELS 6 Xposition Yposition Zposition Zrotation Yrotation Xrotation 
	JOINT LHipJoint
	{
		OFFSET 0 0 0
		CHANNELS 3 Zrotation Yrotation Xrotation
		JOINT LeftUpLeg
		{
			OFFSET 1.58895 -1.83665 0.71753
			CHANNELS 3 Zrotation Yrotation Xrotation
			JOINT LeftLeg
			{
				OFFSET 2.50528 -6.88321 0.00000
				CHANNELS 3 Zrotation Yrotation Xrotation
				JOINT LeftFoot
				{
					OFFSET 2.63244 -7.23257 0.00000
					CHANNELS 3 Zrotation Yrotation Xrotation
					JOINT LeftToeBase
					{
						OFFSET 0.23691 -0.65090 1.72750
						CHANNELS 3 Zrotation Yrotation Xrotation
						End Site
						{
							OFFSET 0.00000 -0.00000 0.92561
						}
					}
				}
			}
		}
	}
	JOINT RHipJoint
	{
		OFFSET 0 0 0
		CHANNELS 3 Zrotation Yrotation Xrotation
		JOINT RightUpLeg
		{
			OFFSET -1.51435 -1.83665 0.71753
			CHANNELS 3 Zrotation Yrotation Xrotation
			JOINT RightLeg
			{
				OFFSET -2.54551 -6.99375 0.00000
				CHANNELS 3 Zrotation Yrotation Xrotation
				JOINT RightFoot
				{
					OFFSET -2.66027 -7.30903 0.00000
					CHANNELS 3 Zrotation Yrotation Xrotation
					JOINT RightToeBase
					{
						OFFSET -0.22981 -0.63138 2.03959
						CHANNELS 3 Zrotation Yrotation Xrotation
						End Site
						{
							OFFSET -0.00000 -0.00000 1.07060
						}
					}
				}
			}
		}
	}
	JOINT LowerBack
	{
		OFFSET 0 0 0
		CHANNELS 3 Zrotation Yrotation Xrotation
		JOINT Spine
		{
			OFFSET -0.02651 1.86275 -0.11152
			CHANNELS 3 Zrotation Yrotation Xrotation
			JOINT Spine1
			{
				OFFSET 0.01019 1.86224 0.04087
				CHANNELS 3 Zrotation Yrotation Xrotation
				JOINT Neck
				{
					OFFSET 0 0 0
					CHANNELS 3 Zrotation Yrotation Xrotation
					JOINT Neck1
					{
						OFFSET -0.01926 1.80512 0.08867
						CHANNELS 3 Zrotation Yrotation Xrotation
						JOINT Head
						{
							OFFSET 0.05516 1.76451 -0.38475
							CHANNELS 3 Zrotation Yrotation Xrotation
							End Site
							{
								OFFSET 0.01592 1.82587 -0.14001
							}
						}
					}
				}
				JOINT LeftShoulder
				{
					OFFSET 0 0 0
					CHANNELS 3 Zrotation Yrotation Xrotation
					JOINT LeftArm
					{
						OFFSET 3.47116 1.51376 0.14491
						CHANNELS 3 Zrotation Yrotation Xrotation
						JOINT LeftForeArm
						{
							OFFSET 4.78095 -0.00000 0.00000
							CHANNELS 3 Zrotation Yrotation Xrotation
							JOINT LeftHand
							{
								OFFSET 3.58615 -0.00000 -0.00000
								CHANNELS 3 Zrotation Yrotation Xrotation
								JOINT LeftFingerBase
								{
									OFFSET 0 0 0
									CHANNELS 3 Zrotation Yrotation Xrotation
									JOINT LeftHandIndex1
									{
										OFFSET 0.65981 -0.00000 0.00000
										CHANNELS 3 Zrotation Yrotation Xrotation
										End Site
										{
											OFFSET 0.53196 -0.00000 0.00000
										}
									}
								}
								JOINT LThumb
								{
									OFFSET 0 0 0
									CHANNELS 3 Zrotation Yrotation Xrotation
									End Site
									{
										OFFSET 0.54008 -0.00000 0.54008
									}
								}
							}
						}
					}
				}
				JOINT RightShoulder
				{
					OFFSET 0 0 0
					CHANNELS 3 Zrotation Yrotation Xrotation
					JOINT RightArm
					{
						OFFSET -3.31725 1.61216 0.35156
						CHANNELS 3 Zrotation Yrotation Xrotation
						JOINT RightForeArm
						{
							OFFSET -4.48913 -0.00000 0.00000
							CHANNELS 3 Zrotation Yrotation Xrotation
							JOINT RightHand
							{
								OFFSET -3.70510 -0.00000 0.00000
								CHANNELS 3 Zrotation Yrotation Xrotation
								JOINT RightFingerBase
								{
									OFFSET 0 0 0
									CHANNELS 3 Zrotation Yrotation Xrotation
									JOINT RightHandIndex1
									{
										OFFSET -0.44914 -0.00000 0.00000
										CHANNELS 3 Zrotation Yrotation Xrotation
										End Site
										{
											OFFSET -0.36211 -0.00000 0.00000
										}
									}
								}
								JOINT RThumb
								{
									OFFSET 0 0 0
									CHANNELS 3 Zrotation Yrotation Xrotation
									End Site
									{
										OFFSET -0.36763 -0.00000 0.36763
									}
								}
							}
						}
					}
				}
			}
		}
	}
}
MOTION
Frames: 10
Frame Time: .0083333
-1.0409 18.1481 5.6795 -4.1033 -0.9556 -1.5559 0.0000 0.0000 0.0000 -11.5659 0.3992 19.7395 0.9059 -6.0652 -16.9737 -0.8913 16.6152 -8.8391 0.3917 -4.0188 -11.1295 0.0000 0.0000 0.0000 0.0000 0.0000 0.0000 0.0000 0.0000 0.0000 -0.0000 -0.0000 0.0000 -0.0000 -0.0000 0.0000 2.8439 0.3755 3.7875 1.9613 0.6566 0.3483 0.3845 0.3131 -1.7572 -1.5587 -1.4709 -10.7644 0.9334 -2.0976 33.1018 0.3430 -1.0029 12.8269 0.0000 0.0000 0.0000 -87.7857 -7.9344 57.2856 90.1144 -60.0000 -60.0991 -0.0000 -0.0000 16.3273 8.8585 -23.2167 -3.5158 -7.1250 0.0000 -0.0000 -12.5627 6.9725 11.2249 0.0000 0.0000 0.0000 77.2255 -3.6344 54.9759 -110.6746 58.3217 -77.8038 0.0000 0.0000 35.2055 -35.9756 -24.2323 16.5905 7.1250 -0.0000 -0.0000 -7.7108 -58.8957 2.6287
-1.0375 18.1485 5.6750 -4.0811 -1.1209 -1.5541 0.0000 0.0000 0.0000 -11.6131 0.3875 19.7966 0.9097 -6.0778 -17.0105 -0.9060 16.7539 -8.9683 0.3812 -3.9650 -10.9781 0.0000 0.0000 0.0000 0.0000 0.0000 0.0000 0.0000 0.0000 0.0000 -0.0000 -0.0000 0.0000 -0.0000 -0.0000 0.0000 2.9048 0.3808 3.7035 1.9183 0.6613 0.3545 0.3067 0.3154 -1.7024 -1.5444 -1.4501 -10.8785 0.9689 -2.0909 33.6322 0.3541 -0.9926 13.0779 0.0000 0.0000 0.0000 -87.6309 -7.9690 57.2310 89.5502 -59.9992 -59.6105 -0.0000 -0.0000 16.5701 9.5163 -23.7627 -3.8644 -7.1250 0.0000 -0.0000 -12.1680 6.3691 11.0002 0.0000 0.0000 0.0000 77.5834 -2.0679 54.0468 -106.5751 58.9360 -74.3031 0.0000 0.0000 34.5958 -35.0421 -24.7252 16.3481 7.1250 -0.0000 -0.0000 -6.5055 -59.2168 2.2654
-1.0331 18.1484 5.6699 -4.1317 -1.2945 -1.5800 0.0000 0.0000 0.0000 -11.5762 0.3910 19.8845 0.9154 -6.0964 -17.0643 -0.9211 16.8979 -9.1202 0.3502 -3.8024 -10.5213 0.0000 0.0000 0.0000 0.0000 0.0000 0.0000 0.0000 0.0000 0.0000 -0.0000 -0.0000 0.0000 -0.0000 -0.0000 0.0000 3.0110 0.3778 3.6676 1.9400 0.6602 0.3575 0.2699 0.3145 -1.6783 -1.6569 -1.4549 -10.9464 1.0200 -2.0943 34.0338 0.3929 -1.0014 13.2688 0.0000 0.0000 0.0000 -87.6030 -7.9886 57.1787 88.9509 -59.9958 -59.0915 -0.0000 -0.0000 16.2863 9.5223 -23.7986 -3.8723 -7.1250 0.0000 -0.0000 -12.1651 6.3333 11.0060 0.0000 0.0000 0.0000 77.8239 -0.5886 53.3694 -102.4464 59.4065 -70.7574 0.0000 0.0000 34.3265 -32.6045 -25.6314 15.4665 7.1250 -0.0000 -0.0000 -3.3771 -59.6117 1.2057
-1.0296 18.1461 5.6647 -4.4096 -1.5117 -1.6799 0.0000 0.0000 0.0000 -11.2665 0.4907 20.0156 0.9163 -6.0991 -17.0723 -0.9308 16.9959 -9.2642 0.3266 -3.6732 -10.1591 0.0000 0.0000 0.0000 0.0000 0.0000 0.0000 0.0000 0.0000 0.0000 -0.0000 -0.0000 0.0000 -0.0000 -0.0000 0.0000 3.3055 0.3807 3.7146 2.0591 0.6795 0.3859 0.2264 0.3226 -1.6733 -1.7432 -1.4566 -11.0514 0.9757 -2.0648 34.3629 0.3942 -1.0050 13.4359 -0.0000 0.0000 0.0000 -87.6843 -8.0242 57.1407 88.2666 -59.9886 -58.4989 -0.0000 -0.0000 15.8860 9.0618 -23.4056 -3.6252 -7.1250 0.0000 -0.0000 -12.4405 6.7666 11.1610 -0.0000 0.0000 0.0000 77.9050 0.7696 53.1510 -98.4762 59.7268 -67.3338 0.0000 0.0000 34.1792 -30.1629 -27.1594 14.8569 7.1250 -0.0000 -0.0000 0.0138 -60.6637 -0.0053
-1.0275 18.1454 5.6595 -4.5242 -1.6884 -1.7278 0.0000 0.0000 0.0000 -11.1461 0.5466 20.0804 0.9145 -6.0932 -17.0551 -0.9396 17.0815 -9.3694 0.3175 -3.6221 -10.0159 0.0000 0.0000 0.0000 0.0000 0.0000 0.0000 0.0000 0.0000 0.0000 -0.0000 -0.0000 0.0000 -0.0000 -0.0000 0.0000 3.4129 0.3925 3.7074 2.1204 0.6991 0.4159 0.2285 0.3324 -1.6375 -1.6756 -1.4539 -11.1782 0.7988 -2.0194 34.5638 0.3176 -0.9993 13.5484 -0.0000 -0.0000 0.0000 -87.7688 -8.1578 57.1696 87.4836 -59.9761 -57.8209 -0.0000 -0.0000 15.6201 8.2586 -22.8774 -3.2296 -7.1250 0.0000 -0.0000 -12.9289 7.3631 11.4689 -0.0000 -0.0000 0.0000 77.8524 2.0397 53.5143 -94.6278 59.9189 -64.0067 0.0000 0.0000 33.3616 -29.4416 -28.7154 15.1728 7.1250 -0.0000 -0.0000 1.5036 -62.1465 -0.6270
-1.0256 18.1475 5.6535 -4.2777 -1.7755 -1.6638 0.0000 0.0000 0.0000 -11.4520 0.5235 19.9919 0.9117 -6.0843 -17.0291 -0.9494 17.1639 -9.3977 0.3227 -3.6512 -10.0975 0.0000 0.0000 0.0000 0.0000 0.0000 0.0000 0.0000 0.0000 0.0000 -0.0000 -0.0000 0.0000 -0.0000 -0.0000 0.0000 3.1625 0.4121 3.6102 2.0541 0.7091 0.4137 0.3007 0.3395 -1.5873 -1.6599 -1.4768 -11.3084 0.7746 -2.0498 34.6750 0.2996 -1.0134 13.6265 0.0000 0.0000 0.0000 -87.7825 -8.3794 57.3265 86.6387 -59.9573 -57.0894 -0.0000 -0.0000 15.6895 7.3256 -22.3997 -2.8046 -7.1250 0.0000 -0.0000 -13.5037 7.9152 11.8585 0.0000 0.0000 0.0000 77.6705 3.2517 53.6740 -91.3110 59.9935 -61.1354 0.0000 0.0000 33.5437 -27.9777 -30.1739 14.9493 7.1250 -0.0000 -0.0000 4.0119 -63.2952 -1.7825
-1.0238 18.1490 5.6479 -4.1162 -1.8686 -1.6238 0.0000 0.0000 0.0000 -11.6605 0.5369 19.8950 0.9040 -6.0591 -16.9560 -0.9548 17.2141 -9.4488 0.3297 -3.6905 -10.2074 0.0000 0.0000 0.0000 0.0000 0.0000 0.0000 0.0000 0.0000 0.0000 -0.0000 -0.0000 0.0000 -0.0000 -0.0000 0.0000 2.9969 0.4444 3.5416 2.0168 0.7412 0.4308 0.3540 0.3571 -1.5323 -1.8052 -1.5122 -11.4285 0.9846 -2.1372 34.7296 0.3950 -1.0422 13.6840 0.0000 -0.0000 0.0000 -87.7703 -8.6183 57.5696 85.9162 -59.9369 -56.4641 -0.0000 -0.0000 16.1166 6.4708 -22.0110 -2.4341 -7.1250 0.0000 -0.0000 -14.0347 8.3667 12.2257 0.0000 -0.0000 0.0000 77.2926 4.2353 53.9987 -88.8457 59.9950 -59.0004 0.0000 0.0000 33.5649 -26.9398 -31.2642 14.7752 7.1250 -0.0000 -0.0000 5.9268 -64.1436 -2.7534
-1.0222 18.1496 5.6434 -4.0983 -1.9834 -1.6319 0.0000 0.0000 0.0000 -11.6999 0.5688 19.8557 0.8941 -6.0268 -16.8621 -0.9584 17.2527 -9.5150 0.3317 -3.7016 -10.2387 0.0000 0.0000 0.0000 0.0000 0.0000 0.0000 0.0000 0.0000 0.0000 -0.0000 -0.0000 0.0000 -0.0000 -0.0000 0.0000 2.9818 0.4882 3.5159 2.0221 0.7963 0.4787 0.3658 0.3857 -1.4680 -1.8797 -1.5379 -11.4964 1.1007 -2.1941 34.6603 0.4454 -1.0611 13.6721 -0.0000 -0.0000 0.0000 -87.7831 -8.8560 57.8144 85.3668 -59.9187 -55.9886 -0.0000 -0.0000 16.5781 5.8925 -21.7286 -2.1881 -7.1250 0.0000 -0.0000 -14.3964 8.6876 12.4675 -0.0000 -0.0000 0.0000 76.8225 4.9581 54.4246 -87.4706 59.9758 -57.8097 0.0000 0.0000 33.5923 -26.1167 -32.4110 14.7229 7.1250 -0.0000 -0.0000 7.7140 -65.0874 -3.7572
-1.0209 18.1494 5.6394 -4.0988 -2.0786 -1.6441 0.0000 0.0000 0.0000 -11.7087 0.6116 19.8400 0.8901 -6.0136 -16.8238 -0.9607 17.2740 -9.5410 0.3285 -3.6839 -10.1889 0.0000 0.0000 0.0000 0.0000 0.0000 0.0000 0.0000 0.0000 0.0000 -0.0000 -0.0000 0.0000 -0.0000 -0.0000 0.0000 3.0145 0.5319 3.5366 2.0112 0.8556 0.5031 0.3335 0.4154 -1.4530 -1.8191 -1.5572 -11.5180 1.0597 -2.2222 34.5461 0.4139 -1.0707 13.6252 -0.0000 0.0000 0.0000 -87.8354 -9.0471 58.0183 84.7967 -59.8974 -55.4954 -0.0000 -0.0000 16.6563 5.7918 -21.6164 -2.1399 -7.1250 0.0000 -0.0000 -14.4604 8.8043 12.4921 -0.0000 0.0000 0.0000 76.4232 5.4192 54.8234 -86.9298 59.9644 -57.3415 0.0000 0.0000 33.7095 -24.9186 -33.5101 14.3855 7.1250 -0.0000 -0.0000 10.0465 -65.8522 -5.0802
-1.0200 18.1488 5.6354 -4.1215 -2.1422 -1.6569 0.0000 0.0000 0.0000 -11.6872 0.6576 19.8385 0.8907 -6.0155 -16.8295 -0.9630 17.2909 -9.5320 0.3290 -3.6864 -10.1961 0.0000 0.0000 0.0000 0.0000 0.0000 0.0000 0.0000 0.0000 0.0000 -0.0000 -0.0000 0.0000 -0.0000 -0.0000 0.0000 3.0834 0.5591 3.5928 1.9944 0.8967 0.5061 0.2752 0.4352 -1.4795 -1.7569 -1.5626 -11.4919 1.0287 -2.2339 34.4190 0.3891 -1.0721 13.5619 0.0000 -0.0000 0.0000 -87.9340 -9.1540 58.1298 84.2043 -59.8727 -54.9829 -0.0000 -0.0000 16.2955 6.1527 -21.6646 -2.2790 -7.1250 0.0000 -0.0000 -14.2355 8.7292 12.3065 0.0000 -0.0000 0.0000 76.1768 5.7206 55.0913 -86.7550 59.9602 -57.1901 0.0000 0.0000 33.9931 -23.3541 -34.1395 13.6215 7.1250 -0.0000 -0.0000 12.5208 -66.0234 -6.3964
